<svg height="1550" width="720" xmlns="http://www.w3.org/2000/svg">
<rect height="1550" fill="#555" width="720"></rect>
<text fill="#7f7" font-family="Courier New" font-size="12" xml:space="preserve">
<tspan x="10" y="26">15 megabytes installed</tspan>
<tspan x="10" y="42"></tspan>
<tspan x="10" y="58">node_modules</tspan>
<tspan x="10" y="74">└─┬ scraperjs@1.2.0 </tspan>
<tspan x="10" y="90">  ├── async@1.5.2 </tspan>
<tspan x="10" y="106">  ├─┬ cheerio@0.19.0 </tspan>
<tspan x="10" y="122">  │ ├─┬ css-select@1.0.0 </tspan>
<tspan x="10" y="138">  │ │ ├── boolbase@1.0.0 </tspan>
<tspan x="10" y="154">  │ │ ├── css-what@1.0.0 </tspan>
<tspan x="10" y="170">  │ │ ├── domutils@1.4.3 </tspan>
<tspan x="10" y="186">  │ │ └── nth-check@1.0.1 </tspan>
<tspan x="10" y="202">  │ ├─┬ dom-serializer@0.1.0 </tspan>
<tspan x="10" y="218">  │ │ └── domelementtype@1.1.3 </tspan>
<tspan x="10" y="234">  │ ├── entities@1.1.1 </tspan>
<tspan x="10" y="250">  │ ├─┬ htmlparser2@3.8.3 </tspan>
<tspan x="10" y="266">  │ │ ├── domelementtype@1.3.0 </tspan>
<tspan x="10" y="282">  │ │ ├── domhandler@2.3.0 </tspan>
<tspan x="10" y="298">  │ │ ├── domutils@1.5.1 </tspan>
<tspan x="10" y="314">  │ │ ├── entities@1.0.0 </tspan>
<tspan x="10" y="330">  │ │ └─┬ readable-stream@1.1.14 </tspan>
<tspan x="10" y="346">  │ │   ├── core-util-is@1.0.2 </tspan>
<tspan x="10" y="362">  │ │   ├── inherits@2.0.3 </tspan>
<tspan x="10" y="378">  │ │   ├── isarray@0.0.1 </tspan>
<tspan x="10" y="394">  │ │   └── string_decoder@0.10.31 </tspan>
<tspan x="10" y="410">  │ └── lodash@3.10.1 </tspan>
<tspan x="10" y="426">  ├─┬ commander@2.9.0 </tspan>
<tspan x="10" y="442">  │ └── graceful-readlink@1.0.1 </tspan>
<tspan x="10" y="458">  ├── jquery@2.2.4 </tspan>
<tspan x="10" y="474">  ├─┬ phantom@0.8.4 </tspan>
<tspan x="10" y="490">  │ ├─┬ dnode@1.2.2 </tspan>
<tspan x="10" y="506">  │ │ ├── dnode-protocol@0.2.2 </tspan>
<tspan x="10" y="522">  │ │ ├── jsonify@0.0.0 </tspan>
<tspan x="10" y="538">  │ │ └─┬ weak@1.0.1 </tspan>
<tspan x="10" y="554">  │ │   ├── bindings@1.2.1 </tspan>
<tspan x="10" y="570">  │ │   └── nan@2.6.2 </tspan>
<tspan x="10" y="586">  │ ├─┬ shoe@0.0.15 </tspan>
<tspan x="10" y="602">  │ │ ├─┬ sockjs@0.3.7 </tspan>
<tspan x="10" y="618">  │ │ │ ├── faye-websocket@0.4.4 </tspan>
<tspan x="10" y="634">  │ │ │ └── node-uuid@1.3.3 </tspan>
<tspan x="10" y="650">  │ │ └── sockjs-client@0.0.0-unreleasable </tspan>
<tspan x="10" y="666">  │ ├── traverse@0.6.6 </tspan>
<tspan x="10" y="682">  │ └── win-spawn@2.0.0 </tspan>
<tspan x="10" y="698">  └─┬ request@2.81.0 </tspan>
<tspan x="10" y="714">    ├── aws-sign2@0.6.0 </tspan>
<tspan x="10" y="730">    ├── aws4@1.6.0 </tspan>
<tspan x="10" y="746">    ├── caseless@0.12.0 </tspan>
<tspan x="10" y="762">    ├─┬ combined-stream@1.0.5 </tspan>
<tspan x="10" y="778">    │ └── delayed-stream@1.0.0 </tspan>
<tspan x="10" y="794">    ├── extend@3.0.0 </tspan>
<tspan x="10" y="810">    ├── forever-agent@0.6.1 </tspan>
<tspan x="10" y="826">    ├─┬ form-data@2.1.4 </tspan>
<tspan x="10" y="842">    │ └── asynckit@0.4.0 </tspan>
<tspan x="10" y="858">    ├─┬ har-validator@4.2.1 </tspan>
<tspan x="10" y="874">    │ ├─┬ ajv@4.11.7 </tspan>
<tspan x="10" y="890">    │ │ ├── co@4.6.0 </tspan>
<tspan x="10" y="906">    │ │ └── json-stable-stringify@1.0.1 </tspan>
<tspan x="10" y="922">    │ └── har-schema@1.0.5 </tspan>
<tspan x="10" y="938">    ├─┬ hawk@3.1.3 </tspan>
<tspan x="10" y="954">    │ ├── boom@2.10.1 </tspan>
<tspan x="10" y="970">    │ ├── cryptiles@2.0.5 </tspan>
<tspan x="10" y="986">    │ ├── hoek@2.16.3 </tspan>
<tspan x="10" y="1002">    │ └── sntp@1.0.9 </tspan>
<tspan x="10" y="1018">    ├─┬ http-signature@1.1.1 </tspan>
<tspan x="10" y="1034">    │ ├── assert-plus@0.2.0 </tspan>
<tspan x="10" y="1050">    │ ├─┬ jsprim@1.4.0 </tspan>
<tspan x="10" y="1066">    │ │ ├── assert-plus@1.0.0 </tspan>
<tspan x="10" y="1082">    │ │ ├── extsprintf@1.0.2 </tspan>
<tspan x="10" y="1098">    │ │ ├── json-schema@0.2.3 </tspan>
<tspan x="10" y="1114">    │ │ └── verror@1.3.6 </tspan>
<tspan x="10" y="1130">    │ └─┬ sshpk@1.13.0 </tspan>
<tspan x="10" y="1146">    │   ├── asn1@0.2.3 </tspan>
<tspan x="10" y="1162">    │   ├── assert-plus@1.0.0 </tspan>
<tspan x="10" y="1178">    │   ├── bcrypt-pbkdf@1.0.1 </tspan>
<tspan x="10" y="1194">    │   ├─┬ dashdash@1.14.1 </tspan>
<tspan x="10" y="1210">    │   │ └── assert-plus@1.0.0 </tspan>
<tspan x="10" y="1226">    │   ├── ecc-jsbn@0.1.1 </tspan>
<tspan x="10" y="1242">    │   ├─┬ getpass@0.1.6 </tspan>
<tspan x="10" y="1258">    │   │ └── assert-plus@1.0.0 </tspan>
<tspan x="10" y="1274">    │   ├── jodid25519@1.0.2 </tspan>
<tspan x="10" y="1290">    │   ├── jsbn@0.1.1 </tspan>
<tspan x="10" y="1306">    │   └── tweetnacl@0.14.5 </tspan>
<tspan x="10" y="1322">    ├── is-typedarray@1.0.0 </tspan>
<tspan x="10" y="1338">    ├── isstream@0.1.2 </tspan>
<tspan x="10" y="1354">    ├── json-stringify-safe@5.0.1 </tspan>
<tspan x="10" y="1370">    ├─┬ mime-types@2.1.15 </tspan>
<tspan x="10" y="1386">    │ └── mime-db@1.27.0 </tspan>
<tspan x="10" y="1402">    ├── oauth-sign@0.8.2 </tspan>
<tspan x="10" y="1418">    ├── performance-now@0.2.0 </tspan>
<tspan x="10" y="1434">    ├── qs@6.4.0 </tspan>
<tspan x="10" y="1450">    ├── safe-buffer@5.0.1 </tspan>
<tspan x="10" y="1466">    ├── stringstream@0.0.5 </tspan>
<tspan x="10" y="1482">    ├─┬ tough-cookie@2.3.2 </tspan>
<tspan x="10" y="1498">    │ └── punycode@1.4.1 </tspan>
<tspan x="10" y="1514">    ├── tunnel-agent@0.6.0 </tspan>
<tspan x="10" y="1530">    └── uuid@3.0.1</tspan>
</text>
</svg>
